# xmcd CD database file generated by Grip 3.2.0
# 
# Track frame offsets:
#       182
#       19847
#       35330
#       49157
#       65595
#       76637
#       91087
#       111687
#       128032
#       140507
#       158585
#       177237
# 
# Disc length: 2634 seconds
# 
# Revision: 5
# Processed by: cddbd v1.5.1PL0 Copyright (c) Steve Scherf et al.
# Submitted via: Grip 3.2.0
# 
DISCID=970a480c
DTITLE=Various Artist - The Way in a Manger
DYEAR=1997
DGENRE=Country
TTITLE0=Lisa Brokop - What a Wonderful Beginning
TTITLE1=Steve Wariner - Our Savior is Born
TTITLE2=Judds - Who is this Baby?
TTITLE3=Paul Brant - The Way in a Manger
TTITLE4=Emmylou Harris - Light of the Stable
TTITLE5=Billy Dean - Mary Did You Know?
TTITLE6=Gary Chapman - Part of Heaven
TTITLE7=Skip Ewing - It Wasn't His Child
TTITLE8=Randy Travis - God Rest Ye Merry Gentlemen
TTITLE9=Toby Keith - What Made the Baby Cry
TTITLE10=Kathy Mattea - Nothing but a Child
TTITLE11=B.J. Thomas - Strange Way to Save the World
EXTD=YEAR: 1997  ID3G:   2
EXTT0=
EXTT1=
EXTT2=
EXTT3=
EXTT4=
EXTT5=
EXTT6=
EXTT7=
EXTT8=
EXTT9=
EXTT10=
EXTT11=
PLAYORDER=
